<svg xmlns="http://www.w3.org/2000/svg" xmlns:xlink="http://www.w3.org/1999/xlink" width="1000" zoomAndPan="magnify" viewBox="0 0 750 749.999995" height="1000" preserveAspectRatio="xMidYMid meet" version="1.2"><defs/><g id="9e0b8abefe"><rect x="0" width="750" y="0" height="749.999995" style="fill:#ffffff;fill-opacity:1;stroke:none;"/><rect x="0" width="750" y="0" height="749.999995" style="fill:#ffffff;fill-opacity:1;stroke:none;"/><g style="fill:#000000;fill-opacity:1;"><g transform="translate(187.507593, 350.253344)"><path style="stroke:none" d="M 6.515625 -74.890625 L 26.03125 -74.890625 L 46.671875 -24.578125 L 47.546875 -24.578125 L 68.171875 -74.890625 L 87.703125 -74.890625 L 87.703125 0 L 72.34375 0 L 72.34375 -48.75 L 71.71875 -48.75 L 52.328125 -0.359375 L 41.875 -0.359375 L 22.484375 -48.9375 L 21.875 -48.9375 L 21.875 0 L 6.515625 0 Z M 6.515625 -74.890625 "/></g></g><g style="fill:#000000;fill-opacity:1;"><g transform="translate(282.665864, 350.253344)"><path style="stroke:none" d="M 6.21875 0 L 6.21875 -56.171875 L 21.796875 -56.171875 L 21.796875 0 Z M 14.046875 -63.421875 C 11.753906 -63.421875 9.773438 -64.191406 8.109375 -65.734375 C 6.453125 -67.285156 5.625 -69.144531 5.625 -71.3125 C 5.625 -73.476562 6.453125 -75.328125 8.109375 -76.859375 C 9.773438 -78.398438 11.753906 -79.171875 14.046875 -79.171875 C 16.359375 -79.171875 18.34375 -78.398438 20 -76.859375 C 21.65625 -75.328125 22.484375 -73.476562 22.484375 -71.3125 C 22.484375 -69.144531 21.65625 -67.285156 20 -65.734375 C 18.34375 -64.191406 16.359375 -63.421875 14.046875 -63.421875 Z M 14.046875 -63.421875 "/></g></g><g style="fill:#000000;fill-opacity:1;"><g transform="translate(310.679409, 350.253344)"><path style="stroke:none" d="M 6.21875 0 L 6.21875 -56.171875 L 21.328125 -56.171875 L 21.328125 -46.375 L 21.90625 -46.375 C 22.925781 -49.863281 24.632812 -52.503906 27.03125 -54.296875 C 29.4375 -56.085938 32.226562 -56.984375 35.40625 -56.984375 C 36.914062 -56.984375 38.316406 -56.796875 39.609375 -56.421875 C 40.898438 -56.054688 42.054688 -55.5625 43.078125 -54.9375 L 38.40625 -42.0625 C 37.664062 -42.425781 36.863281 -42.734375 36 -42.984375 C 35.132812 -43.242188 34.164062 -43.375 33.09375 -43.375 C 29.945312 -43.375 27.28125 -42.300781 25.09375 -40.15625 C 22.914062 -38.007812 21.816406 -35.21875 21.796875 -31.78125 L 21.796875 0 Z M 6.21875 0 "/></g></g><g style="fill:#000000;fill-opacity:1;"><g transform="translate(353.2482, 350.253344)"><path style="stroke:none" d="M 22.234375 1.0625 C 16.867188 1.0625 12.414062 -0.335938 8.875 -3.140625 C 5.34375 -5.941406 3.578125 -10.125 3.578125 -15.6875 C 3.578125 -19.882812 4.566406 -23.175781 6.546875 -25.5625 C 8.523438 -27.945312 11.113281 -29.691406 14.3125 -30.796875 C 17.519531 -31.910156 20.976562 -32.640625 24.6875 -32.984375 C 29.5625 -33.472656 33.046875 -33.984375 35.140625 -34.515625 C 37.242188 -35.054688 38.296875 -36.226562 38.296875 -38.03125 L 38.296875 -38.25 C 38.296875 -40.570312 37.566406 -42.363281 36.109375 -43.625 C 34.660156 -44.894531 32.609375 -45.53125 29.953125 -45.53125 C 27.148438 -45.53125 24.914062 -44.921875 23.25 -43.703125 C 21.59375 -42.484375 20.5 -40.9375 19.96875 -39.0625 L 5.5625 -40.234375 C 6.632812 -45.347656 9.296875 -49.40625 13.546875 -52.40625 C 17.804688 -55.40625 23.300781 -56.90625 30.03125 -56.90625 C 34.195312 -56.90625 38.09375 -56.242188 41.71875 -54.921875 C 45.351562 -53.609375 48.285156 -51.554688 50.515625 -48.765625 C 52.753906 -45.972656 53.875 -42.347656 53.875 -37.890625 L 53.875 0 L 39.09375 0 L 39.09375 -7.796875 L 38.65625 -7.796875 C 37.289062 -5.179688 35.25 -3.050781 32.53125 -1.40625 C 29.8125 0.238281 26.378906 1.0625 22.234375 1.0625 Z M 26.703125 -9.6875 C 30.109375 -9.6875 32.910156 -10.679688 35.109375 -12.671875 C 37.304688 -14.660156 38.40625 -17.128906 38.40625 -20.078125 L 38.40625 -26.03125 C 37.789062 -25.625 36.84375 -25.257812 35.5625 -24.9375 C 34.28125 -24.625 32.914062 -24.347656 31.46875 -24.109375 C 30.019531 -23.878906 28.722656 -23.679688 27.578125 -23.515625 C 24.847656 -23.128906 22.644531 -22.363281 20.96875 -21.21875 C 19.300781 -20.070312 18.46875 -18.398438 18.46875 -16.203125 C 18.46875 -14.054688 19.238281 -12.429688 20.78125 -11.328125 C 22.332031 -10.234375 24.304688 -9.6875 26.703125 -9.6875 Z M 26.703125 -9.6875 "/></g></g><g style="fill:#000000;fill-opacity:1;"><g transform="translate(413.005537, 350.253344)"><path style="stroke:none" d=""/></g></g><g style="fill:#000000;fill-opacity:1;"><g transform="translate(436.88654, 350.253344)"><path style="stroke:none" d="M 31.8125 1.09375 C 26.0625 1.09375 21.097656 -0.0820312 16.921875 -2.4375 C 12.753906 -4.789062 9.550781 -8.128906 7.3125 -12.453125 C 5.070312 -16.773438 3.953125 -21.898438 3.953125 -27.828125 C 3.953125 -33.609375 5.070312 -38.679688 7.3125 -43.046875 C 9.550781 -47.410156 12.710938 -50.8125 16.796875 -53.25 C 20.890625 -55.6875 25.6875 -56.90625 31.1875 -56.90625 C 36.144531 -56.90625 40.613281 -55.851562 44.59375 -53.75 C 48.582031 -51.65625 51.742188 -48.492188 54.078125 -44.265625 C 56.421875 -40.035156 57.59375 -34.738281 57.59375 -28.375 L 57.59375 -24.09375 L 19.34375 -24.09375 L 19.34375 -24.0625 C 19.34375 -19.875 20.488281 -16.570312 22.78125 -14.15625 C 25.070312 -11.738281 28.171875 -10.53125 32.078125 -10.53125 C 34.679688 -10.53125 36.929688 -11.078125 38.828125 -12.171875 C 40.734375 -13.273438 42.078125 -14.898438 42.859375 -17.046875 L 57.265625 -16.09375 C 56.171875 -10.875 53.390625 -6.703125 48.921875 -3.578125 C 44.460938 -0.460938 38.757812 1.09375 31.8125 1.09375 Z M 19.34375 -33.75 L 42.9375 -33.75 C 42.90625 -37.09375 41.828125 -39.847656 39.703125 -42.015625 C 37.585938 -44.191406 34.835938 -45.28125 31.453125 -45.28125 C 27.992188 -45.28125 25.15625 -44.15625 22.9375 -41.90625 C 20.71875 -39.664062 19.519531 -36.945312 19.34375 -33.75 Z M 19.34375 -33.75 "/></g></g><g style="fill:#000000;fill-opacity:1;"><g transform="translate(498.435861, 350.253344)"><path style="stroke:none" d="M 21.796875 -32.46875 L 21.796875 0 L 6.21875 0 L 6.21875 -56.171875 L 21.0625 -56.171875 L 21.0625 -46.265625 L 21.71875 -46.265625 C 22.988281 -49.523438 25.078125 -52.113281 27.984375 -54.03125 C 30.898438 -55.945312 34.445312 -56.90625 38.625 -56.90625 C 44.46875 -56.90625 49.15625 -55.019531 52.6875 -51.25 C 56.226562 -47.488281 58 -42.328125 58 -35.765625 L 58 0 L 42.421875 0 L 42.421875 -32.984375 C 42.441406 -36.421875 41.5625 -39.109375 39.78125 -41.046875 C 38.007812 -42.984375 35.5625 -43.953125 32.4375 -43.953125 C 29.289062 -43.953125 26.734375 -42.945312 24.765625 -40.9375 C 22.804688 -38.925781 21.816406 -36.101562 21.796875 -32.46875 Z M 21.796875 -32.46875 "/></g></g><g style="fill:#ff3131;fill-opacity:1;"><g transform="translate(56.913849, 473.253338)"><path style="stroke:none" d="M 31.59375 1.09375 C 25.84375 1.09375 20.898438 -0.128906 16.765625 -2.578125 C 12.628906 -5.023438 9.457031 -8.429688 7.25 -12.796875 C 5.050781 -17.160156 3.953125 -22.1875 3.953125 -27.875 C 3.953125 -33.625 5.066406 -38.671875 7.296875 -43.015625 C 9.523438 -47.367188 12.695312 -50.769531 16.8125 -53.21875 C 20.9375 -55.675781 25.84375 -56.90625 31.53125 -56.90625 C 36.425781 -56.90625 40.71875 -56.015625 44.40625 -54.234375 C 48.101562 -52.453125 51.019531 -49.953125 53.15625 -46.734375 C 55.289062 -43.515625 56.46875 -39.738281 56.6875 -35.40625 L 41.984375 -35.40625 C 41.566406 -38.207031 40.472656 -40.46875 38.703125 -42.1875 C 36.941406 -43.90625 34.632812 -44.765625 31.78125 -44.765625 C 28.175781 -44.765625 25.273438 -43.3125 23.078125 -40.40625 C 20.878906 -37.507812 19.78125 -33.40625 19.78125 -28.09375 C 19.78125 -22.726562 20.867188 -18.578125 23.046875 -15.640625 C 25.234375 -12.703125 28.144531 -11.234375 31.78125 -11.234375 C 34.457031 -11.234375 36.707031 -12.039062 38.53125 -13.65625 C 40.363281 -15.28125 41.515625 -17.59375 41.984375 -20.59375 L 56.6875 -20.59375 C 56.4375 -16.300781 55.269531 -12.519531 53.1875 -9.25 C 51.101562 -5.988281 48.234375 -3.445312 44.578125 -1.625 C 40.921875 0.1875 36.59375 1.09375 31.59375 1.09375 Z M 31.59375 1.09375 "/></g></g><g style="fill:#ff3131;fill-opacity:1;"><g transform="translate(117.402623, 473.253338)"><path style="stroke:none" d="M 31.59375 1.09375 C 25.914062 1.09375 21.007812 -0.117188 16.875 -2.546875 C 12.738281 -4.972656 9.550781 -8.359375 7.3125 -12.703125 C 5.070312 -17.054688 3.953125 -22.113281 3.953125 -27.875 C 3.953125 -33.675781 5.070312 -38.75 7.3125 -43.09375 C 9.550781 -47.445312 12.738281 -50.835938 16.875 -53.265625 C 21.007812 -55.691406 25.914062 -56.90625 31.59375 -56.90625 C 37.28125 -56.90625 42.1875 -55.691406 46.3125 -53.265625 C 50.445312 -50.835938 53.632812 -47.445312 55.875 -43.09375 C 58.125 -38.75 59.25 -33.675781 59.25 -27.875 C 59.25 -22.113281 58.125 -17.054688 55.875 -12.703125 C 53.632812 -8.359375 50.445312 -4.972656 46.3125 -2.546875 C 42.1875 -0.117188 37.28125 1.09375 31.59375 1.09375 Z M 31.671875 -10.96875 C 35.523438 -10.96875 38.441406 -12.578125 40.421875 -15.796875 C 42.410156 -19.015625 43.40625 -23.078125 43.40625 -27.984375 C 43.40625 -32.878906 42.410156 -36.941406 40.421875 -40.171875 C 38.441406 -43.398438 35.523438 -45.015625 31.671875 -45.015625 C 27.742188 -45.015625 24.78125 -43.398438 22.78125 -40.171875 C 20.78125 -36.941406 19.78125 -32.878906 19.78125 -27.984375 C 19.78125 -23.078125 20.78125 -19.015625 22.78125 -15.796875 C 24.78125 -12.578125 27.742188 -10.96875 31.671875 -10.96875 Z M 31.671875 -10.96875 "/></g></g><g style="fill:#ff3131;fill-opacity:1;"><g transform="translate(180.597662, 473.253338)"><path style="stroke:none" d="M 6.21875 0 L 6.21875 -56.171875 L 21.0625 -56.171875 L 21.0625 -46.265625 L 21.71875 -46.265625 C 22.894531 -49.578125 24.851562 -52.175781 27.59375 -54.0625 C 30.332031 -55.957031 33.59375 -56.90625 37.375 -56.90625 C 41.226562 -56.90625 44.503906 -55.945312 47.203125 -54.03125 C 49.910156 -52.113281 51.71875 -49.523438 52.625 -46.265625 L 53.21875 -46.265625 C 54.363281 -49.484375 56.441406 -52.0625 59.453125 -54 C 62.460938 -55.9375 66.023438 -56.90625 70.140625 -56.90625 C 75.378906 -56.90625 79.640625 -55.238281 82.921875 -51.90625 C 86.203125 -48.582031 87.84375 -43.875 87.84375 -37.78125 L 87.84375 0 L 72.296875 0 L 72.296875 -34.703125 C 72.296875 -37.828125 71.46875 -40.164062 69.8125 -41.71875 C 68.15625 -43.28125 66.082031 -44.0625 63.59375 -44.0625 C 60.769531 -44.0625 58.5625 -43.160156 56.96875 -41.359375 C 55.382812 -39.554688 54.59375 -37.203125 54.59375 -34.296875 L 54.59375 0 L 39.5 0 L 39.5 -35.03125 C 39.5 -37.789062 38.710938 -39.984375 37.140625 -41.609375 C 35.566406 -43.242188 33.5 -44.0625 30.9375 -44.0625 C 28.351562 -44.0625 26.179688 -43.117188 24.421875 -41.234375 C 22.671875 -39.347656 21.796875 -36.84375 21.796875 -33.71875 L 21.796875 0 Z M 6.21875 0 "/></g></g><g style="fill:#ff3131;fill-opacity:1;"><g transform="translate(274.51251, 473.253338)"><path style="stroke:none" d="M 31.8125 1.09375 C 26.0625 1.09375 21.097656 -0.0820312 16.921875 -2.4375 C 12.753906 -4.789062 9.550781 -8.128906 7.3125 -12.453125 C 5.070312 -16.773438 3.953125 -21.898438 3.953125 -27.828125 C 3.953125 -33.609375 5.070312 -38.679688 7.3125 -43.046875 C 9.550781 -47.410156 12.710938 -50.8125 16.796875 -53.25 C 20.890625 -55.6875 25.6875 -56.90625 31.1875 -56.90625 C 36.144531 -56.90625 40.613281 -55.851562 44.59375 -53.75 C 48.582031 -51.65625 51.742188 -48.492188 54.078125 -44.265625 C 56.421875 -40.035156 57.59375 -34.738281 57.59375 -28.375 L 57.59375 -24.09375 L 19.34375 -24.09375 L 19.34375 -24.0625 C 19.34375 -19.875 20.488281 -16.570312 22.78125 -14.15625 C 25.070312 -11.738281 28.171875 -10.53125 32.078125 -10.53125 C 34.679688 -10.53125 36.929688 -11.078125 38.828125 -12.171875 C 40.734375 -13.273438 42.078125 -14.898438 42.859375 -17.046875 L 57.265625 -16.09375 C 56.171875 -10.875 53.390625 -6.703125 48.921875 -3.578125 C 44.460938 -0.460938 38.757812 1.09375 31.8125 1.09375 Z M 19.34375 -33.75 L 42.9375 -33.75 C 42.90625 -37.09375 41.828125 -39.847656 39.703125 -42.015625 C 37.585938 -44.191406 34.835938 -45.28125 31.453125 -45.28125 C 27.992188 -45.28125 25.15625 -44.15625 22.9375 -41.90625 C 20.71875 -39.664062 19.519531 -36.945312 19.34375 -33.75 Z M 19.34375 -33.75 "/></g></g><g style="fill:#ff3131;fill-opacity:1;"><g transform="translate(336.061831, 473.253338)"><path style="stroke:none" d="M 21.796875 -32.46875 L 21.796875 0 L 6.21875 0 L 6.21875 -56.171875 L 21.0625 -56.171875 L 21.0625 -46.265625 L 21.71875 -46.265625 C 22.988281 -49.523438 25.078125 -52.113281 27.984375 -54.03125 C 30.898438 -55.945312 34.445312 -56.90625 38.625 -56.90625 C 44.46875 -56.90625 49.15625 -55.019531 52.6875 -51.25 C 56.226562 -47.488281 58 -42.328125 58 -35.765625 L 58 0 L 42.421875 0 L 42.421875 -32.984375 C 42.441406 -36.421875 41.5625 -39.109375 39.78125 -41.046875 C 38.007812 -42.984375 35.5625 -43.953125 32.4375 -43.953125 C 29.289062 -43.953125 26.734375 -42.945312 24.765625 -40.9375 C 22.804688 -38.925781 21.816406 -36.101562 21.796875 -32.46875 Z M 21.796875 -32.46875 "/></g></g><g style="fill:#ff3131;fill-opacity:1;"><g transform="translate(400.098021, 473.253338)"><path style="stroke:none" d="M 36.09375 -56.171875 L 36.09375 -44.46875 L 25.53125 -44.46875 L 25.53125 -17.265625 C 25.53125 -15.117188 26.015625 -13.664062 26.984375 -12.90625 C 27.960938 -12.15625 29.234375 -11.78125 30.796875 -11.78125 C 31.523438 -11.78125 32.253906 -11.84375 32.984375 -11.96875 C 33.710938 -12.101562 34.273438 -12.207031 34.671875 -12.28125 L 37.125 -0.6875 C 36.34375 -0.445312 35.242188 -0.164062 33.828125 0.15625 C 32.410156 0.488281 30.691406 0.691406 28.671875 0.765625 C 23.015625 1.015625 18.472656 -0.207031 15.046875 -2.90625 C 11.617188 -5.601562 9.921875 -9.707031 9.953125 -15.21875 L 9.953125 -44.46875 L 2.265625 -44.46875 L 2.265625 -56.171875 L 9.953125 -56.171875 L 9.953125 -69.625 L 25.53125 -69.625 L 25.53125 -56.171875 Z M 36.09375 -56.171875 "/></g></g><g style="fill:#ff3131;fill-opacity:1;"><g transform="translate(440.106931, 473.253338)"><path style="stroke:none" d="M 22.234375 1.0625 C 16.867188 1.0625 12.414062 -0.335938 8.875 -3.140625 C 5.34375 -5.941406 3.578125 -10.125 3.578125 -15.6875 C 3.578125 -19.882812 4.566406 -23.175781 6.546875 -25.5625 C 8.523438 -27.945312 11.113281 -29.691406 14.3125 -30.796875 C 17.519531 -31.910156 20.976562 -32.640625 24.6875 -32.984375 C 29.5625 -33.472656 33.046875 -33.984375 35.140625 -34.515625 C 37.242188 -35.054688 38.296875 -36.226562 38.296875 -38.03125 L 38.296875 -38.25 C 38.296875 -40.570312 37.566406 -42.363281 36.109375 -43.625 C 34.660156 -44.894531 32.609375 -45.53125 29.953125 -45.53125 C 27.148438 -45.53125 24.914062 -44.921875 23.25 -43.703125 C 21.59375 -42.484375 20.5 -40.9375 19.96875 -39.0625 L 5.5625 -40.234375 C 6.632812 -45.347656 9.296875 -49.40625 13.546875 -52.40625 C 17.804688 -55.40625 23.300781 -56.90625 30.03125 -56.90625 C 34.195312 -56.90625 38.09375 -56.242188 41.71875 -54.921875 C 45.351562 -53.609375 48.285156 -51.554688 50.515625 -48.765625 C 52.753906 -45.972656 53.875 -42.347656 53.875 -37.890625 L 53.875 0 L 39.09375 0 L 39.09375 -7.796875 L 38.65625 -7.796875 C 37.289062 -5.179688 35.25 -3.050781 32.53125 -1.40625 C 29.8125 0.238281 26.378906 1.0625 22.234375 1.0625 Z M 26.703125 -9.6875 C 30.109375 -9.6875 32.910156 -10.679688 35.109375 -12.671875 C 37.304688 -14.660156 38.40625 -17.128906 38.40625 -20.078125 L 38.40625 -26.03125 C 37.789062 -25.625 36.84375 -25.257812 35.5625 -24.9375 C 34.28125 -24.625 32.914062 -24.347656 31.46875 -24.109375 C 30.019531 -23.878906 28.722656 -23.679688 27.578125 -23.515625 C 24.847656 -23.128906 22.644531 -22.363281 20.96875 -21.21875 C 19.300781 -20.070312 18.46875 -18.398438 18.46875 -16.203125 C 18.46875 -14.054688 19.238281 -12.429688 20.78125 -11.328125 C 22.332031 -10.234375 24.304688 -9.6875 26.703125 -9.6875 Z M 26.703125 -9.6875 "/></g></g><g style="fill:#ff3131;fill-opacity:1;"><g transform="translate(499.864268, 473.253338)"><path style="stroke:none" d="M 6.21875 0 L 6.21875 -56.171875 L 21.328125 -56.171875 L 21.328125 -46.375 L 21.90625 -46.375 C 22.925781 -49.863281 24.632812 -52.503906 27.03125 -54.296875 C 29.4375 -56.085938 32.226562 -56.984375 35.40625 -56.984375 C 36.914062 -56.984375 38.316406 -56.796875 39.609375 -56.421875 C 40.898438 -56.054688 42.054688 -55.5625 43.078125 -54.9375 L 38.40625 -42.0625 C 37.664062 -42.425781 36.863281 -42.734375 36 -42.984375 C 35.132812 -43.242188 34.164062 -43.375 33.09375 -43.375 C 29.945312 -43.375 27.28125 -42.300781 25.09375 -40.15625 C 22.914062 -38.007812 21.816406 -35.21875 21.796875 -31.78125 L 21.796875 0 Z M 6.21875 0 "/></g></g><g style="fill:#ff3131;fill-opacity:1;"><g transform="translate(544.005684, 473.253338)"><path style="stroke:none" d="M 6.21875 0 L 6.21875 -56.171875 L 21.796875 -56.171875 L 21.796875 0 Z M 14.046875 -63.421875 C 11.753906 -63.421875 9.773438 -64.191406 8.109375 -65.734375 C 6.453125 -67.285156 5.625 -69.144531 5.625 -71.3125 C 5.625 -73.476562 6.453125 -75.328125 8.109375 -76.859375 C 9.773438 -78.398438 11.753906 -79.171875 14.046875 -79.171875 C 16.359375 -79.171875 18.34375 -78.398438 20 -76.859375 C 21.65625 -75.328125 22.484375 -73.476562 22.484375 -71.3125 C 22.484375 -69.144531 21.65625 -67.285156 20 -65.734375 C 18.34375 -64.191406 16.359375 -63.421875 14.046875 -63.421875 Z M 14.046875 -63.421875 "/></g></g><g style="fill:#ff3131;fill-opacity:1;"><g transform="translate(572.019263, 473.253338)"><path style="stroke:none" d="M 31.59375 1.09375 C 25.914062 1.09375 21.007812 -0.117188 16.875 -2.546875 C 12.738281 -4.972656 9.550781 -8.359375 7.3125 -12.703125 C 5.070312 -17.054688 3.953125 -22.113281 3.953125 -27.875 C 3.953125 -33.675781 5.070312 -38.75 7.3125 -43.09375 C 9.550781 -47.445312 12.738281 -50.835938 16.875 -53.265625 C 21.007812 -55.691406 25.914062 -56.90625 31.59375 -56.90625 C 37.28125 -56.90625 42.1875 -55.691406 46.3125 -53.265625 C 50.445312 -50.835938 53.632812 -47.445312 55.875 -43.09375 C 58.125 -38.75 59.25 -33.675781 59.25 -27.875 C 59.25 -22.113281 58.125 -17.054688 55.875 -12.703125 C 53.632812 -8.359375 50.445312 -4.972656 46.3125 -2.546875 C 42.1875 -0.117188 37.28125 1.09375 31.59375 1.09375 Z M 31.671875 -10.96875 C 35.523438 -10.96875 38.441406 -12.578125 40.421875 -15.796875 C 42.410156 -19.015625 43.40625 -23.078125 43.40625 -27.984375 C 43.40625 -32.878906 42.410156 -36.941406 40.421875 -40.171875 C 38.441406 -43.398438 35.523438 -45.015625 31.671875 -45.015625 C 27.742188 -45.015625 24.78125 -43.398438 22.78125 -40.171875 C 20.78125 -36.941406 19.78125 -32.878906 19.78125 -27.984375 C 19.78125 -23.078125 20.78125 -19.015625 22.78125 -15.796875 C 24.78125 -12.578125 27.742188 -10.96875 31.671875 -10.96875 Z M 31.671875 -10.96875 "/></g></g><g style="fill:#ff3131;fill-opacity:1;"><g transform="translate(635.214267, 473.253338)"><path style="stroke:none" d="M 52.953125 -40.15625 L 38.6875 -39.28125 C 38.300781 -41.082031 37.316406 -42.628906 35.734375 -43.921875 C 34.148438 -45.210938 32.003906 -45.859375 29.296875 -45.859375 C 26.878906 -45.859375 24.832031 -45.351562 23.15625 -44.34375 C 21.488281 -43.332031 20.671875 -41.984375 20.703125 -40.296875 C 20.671875 -38.960938 21.195312 -37.832031 22.28125 -36.90625 C 23.375 -35.976562 25.222656 -35.234375 27.828125 -34.671875 L 38 -32.625 C 48.800781 -30.40625 54.210938 -25.332031 54.234375 -17.40625 C 54.234375 -13.726562 53.15625 -10.5 51 -7.71875 C 48.84375 -4.9375 45.882812 -2.769531 42.125 -1.21875 C 38.375 0.320312 34.070312 1.09375 29.21875 1.09375 C 21.78125 1.09375 15.851562 -0.457031 11.4375 -3.5625 C 7.03125 -6.675781 4.460938 -10.914062 3.734375 -16.28125 L 19.046875 -17.078125 C 19.535156 -14.785156 20.664062 -13.050781 22.4375 -11.875 C 24.207031 -10.707031 26.476562 -10.125 29.25 -10.125 C 31.988281 -10.125 34.191406 -10.660156 35.859375 -11.734375 C 37.523438 -12.804688 38.375 -14.171875 38.40625 -15.828125 C 38.332031 -18.609375 35.925781 -20.476562 31.1875 -21.4375 L 21.46875 -23.375 C 10.59375 -25.539062 5.179688 -30.890625 5.234375 -39.421875 C 5.203125 -44.835938 7.363281 -49.101562 11.71875 -52.21875 C 16.070312 -55.34375 21.84375 -56.90625 29.03125 -56.90625 C 36.132812 -56.90625 41.726562 -55.40625 45.8125 -52.40625 C 49.894531 -49.40625 52.273438 -45.320312 52.953125 -40.15625 Z M 52.953125 -40.15625 "/></g></g></g></svg>